STARTFONT 2.1
COMMENT $Id$
COMMENT 
COMMENT Copyright (C) Centre d'Etudes de la Navigation Aťrienne
COMMENT 
COMMENT This software is free software; you can redistribute it and/or
COMMENT modify it under the terms of the GNU Lesser General Public License
COMMENT as published by the Free Software Foundation: either version 2
COMMENT of the License, or (at your option) any later version.
COMMENT 
COMMENT This software is distributed in the hope that it will be useful,
COMMENT but WITHOUT ANY WARRANTY; without even the implied warranty of
COMMENT MERCHANTABILITY or FITNESS FOR A PARTICULAR PURPOSE.  See the
COMMENT GNU Lesser General Public License for more details.
COMMENT 
COMMENT You should have received a copy of the GNU Lesser General Public License
COMMENT along with this software; if not, write to the Free Software
COMMENT Foundation, Inc., 59 Temple Place - Suite 330, Boston, MA  02111-1307, USA.
COMMENT Please refer to http://www.gnu.org/copyleft/gpl.html
COMMENT
COMMENT to contact us:
COMMENT    email to:  pii-contact@cena.dgac.fr
COMMENT or write to: CENA, 7 avenue Edouard Belin, 31400 Toulouse, France 
COMMENT 
FONT -cena-orly label-medium-r-normal-sans-16-160-75-75-p-88-fontspecific-1
SIZE 16 75 75
FONTBOUNDINGBOX 16 19 0 -4
STARTPROPERTIES 14
FOUNDRY "CENA"
FAMILY_NAME "Orly Label"
COPYRIGHT "Copyright 1999 CENA/J.L.Vinot"
POINT_SIZE 160
PIXEL_SIZE 16
RESOLUTION_X 75
RESOLUTION_Y 75
FONT_ASCENT 15
FONT_DESCENT 3
SPACING "p"
WEIGHT_NAME "medium"
SLANT "r"
SETWIDTH_NAME "normal"
_XMBDFED_INFO "Edited with xmbdfed 3.3."
ENDPROPERTIES
CHARS 133
STARTCHAR GCIDF6
ENCODING 6
SWIDTH 480 0
DWIDTH 8 0
BBX 5 2 2 9
BITMAP
70
D8
ENDCHAR
STARTCHAR CENA14
ENCODING 20
SWIDTH 600 0
DWIDTH 10 0
BBX 8 2 1 5
BITMAP
FF
FF
ENDCHAR
STARTCHAR CENA15
ENCODING 21
SWIDTH 600 0
DWIDTH 10 0
BBX 8 11 1 0
BITMAP
E0
70
38
18
0C
3F
1F
0F
07
03
01
ENDCHAR
STARTCHAR CENA16
ENCODING 22
SWIDTH 600 0
DWIDTH 10 0
BBX 8 11 1 0
BITMAP
01
03
07
0F
1F
3F
0C
18
38
70
E0
ENDCHAR
STARTCHAR GCID20
ENCODING 32
SWIDTH 660 0
DWIDTH 11 0
BBX 0 0 0 0
BITMAP
ENDCHAR
STARTCHAR CENA21
ENCODING 33
SWIDTH 300 0
DWIDTH 5 0
BBX 2 11 2 0
BITMAP
C0
C0
C0
C0
C0
C0
C0
C0
00
C0
C0
ENDCHAR
STARTCHAR CENA22
ENCODING 34
SWIDTH 300 0
DWIDTH 5 0
BBX 3 4 1 7
BITMAP
A0
A0
A0
A0
ENDCHAR
STARTCHAR CENA23
ENCODING 35
SWIDTH 720 0
DWIDTH 12 0
BBX 11 11 1 0
BITMAP
0CC0
0880
0880
7FE0
1100
1100
FFC0
2200
2200
6600
4400
ENDCHAR
STARTCHAR CENA25
ENCODING 37
SWIDTH 780 0
DWIDTH 13 0
BBX 12 12 0 0
BITMAP
70C0
8880
8980
8900
8B00
7200
04E0
0D10
0910
1910
1110
30E0
ENDCHAR
STARTCHAR CENA26
ENCODING 38
SWIDTH 660 0
DWIDTH 11 0
BBX 10 11 1 0
BITMAP
3C00
6600
6600
6600
7C00
3800
7CC0
CF80
C700
E780
7DC0
ENDCHAR
STARTCHAR CENA27
ENCODING 39
SWIDTH 180 0
DWIDTH 3 0
BBX 1 4 1 7
BITMAP
80
80
80
80
ENDCHAR
STARTCHAR CENA28
ENCODING 40
SWIDTH 300 0
DWIDTH 5 0
BBX 3 15 1 -4
BITMAP
20
60
40
C0
C0
C0
C0
C0
C0
C0
C0
C0
40
60
20
ENDCHAR
STARTCHAR CENA29
ENCODING 41
SWIDTH 300 0
DWIDTH 5 0
BBX 3 15 0 -4
BITMAP
80
C0
40
60
60
60
60
60
60
60
60
60
40
C0
80
ENDCHAR
STARTCHAR CENA2A
ENCODING 42
SWIDTH 540 0
DWIDTH 9 0
BBX 7 7 1 4
BITMAP
10
92
7C
38
7C
92
10
ENDCHAR
STARTCHAR CENA2B
ENCODING 43
SWIDTH 720 0
DWIDTH 12 0
BBX 8 7 2 0
BITMAP
18
18
18
FF
18
18
18
ENDCHAR
STARTCHAR CENA2C
ENCODING 44
SWIDTH 300 0
DWIDTH 5 0
BBX 3 5 1 -3
BITMAP
60
60
40
C0
80
ENDCHAR
STARTCHAR CENA2D
ENCODING 45
SWIDTH 540 0
DWIDTH 9 0
BBX 5 2 2 3
BITMAP
F8
F8
ENDCHAR
STARTCHAR CENA2E
ENCODING 46
SWIDTH 300 0
DWIDTH 5 0
BBX 2 2 1 0
BITMAP
C0
C0
ENDCHAR
STARTCHAR CENA2F
ENCODING 47
SWIDTH 420 0
DWIDTH 7 0
BBX 7 13 0 -2
BITMAP
02
06
04
0C
08
18
10
30
20
60
40
C0
80
ENDCHAR
STARTCHAR CENA30
ENCODING 48
SWIDTH 600 0
DWIDTH 10 0
BBX 8 11 1 0
BITMAP
3C
66
C3
C3
CB
DB
D3
C3
C3
66
3C
ENDCHAR
STARTCHAR CENA31
ENCODING 49
SWIDTH 540 0
DWIDTH 9 0
BBX 6 11 1 0
BITMAP
0C
1C
3C
6C
CC
0C
0C
0C
0C
0C
0C
ENDCHAR
STARTCHAR CENA32
ENCODING 50
SWIDTH 540 0
DWIDTH 9 0
BBX 7 11 1 0
BITMAP
7C
C6
86
06
06
0C
18
30
60
C0
FE
ENDCHAR
STARTCHAR CENA33
ENCODING 51
SWIDTH 600 0
DWIDTH 10 0
BBX 8 11 1 0
BITMAP
3C
66
06
06
1C
0E
03
03
C3
66
3C
ENDCHAR
STARTCHAR CENA34
ENCODING 52
SWIDTH 600 0
DWIDTH 10 0
BBX 8 11 1 0
BITMAP
06
0E
1E
16
36
66
46
C6
FF
06
06
ENDCHAR
STARTCHAR CENA35
ENCODING 53
SWIDTH 600 0
DWIDTH 10 0
BBX 8 11 1 0
BITMAP
7E
60
60
7C
66
03
03
03
C3
66
3C
ENDCHAR
STARTCHAR CENA36
ENCODING 54
SWIDTH 600 0
DWIDTH 10 0
BBX 8 11 1 0
BITMAP
0C
18
30
60
7E
E7
C3
C3
C3
66
3C
ENDCHAR
STARTCHAR CENA37
ENCODING 55
SWIDTH 540 0
DWIDTH 9 0
BBX 8 11 1 0
BITMAP
FF
03
06
0C
18
18
30
30
60
60
60
ENDCHAR
STARTCHAR CENA38
ENCODING 56
SWIDTH 660 0
DWIDTH 11 0
BBX 9 11 1 0
BITMAP
3E00
6300
6300
7300
3E00
6F00
C380
C180
C180
6300
3E00
ENDCHAR
STARTCHAR CENA39
ENCODING 57
SWIDTH 600 0
DWIDTH 10 0
BBX 8 11 1 0
BITMAP
3C
66
C3
C3
C3
E7
7E
06
0C
18
30
ENDCHAR
STARTCHAR CENA3A
ENCODING 58
SWIDTH 360 0
DWIDTH 6 0
BBX 2 8 2 0
BITMAP
C0
C0
00
00
00
00
C0
C0
ENDCHAR
STARTCHAR CENA3B
ENCODING 59
SWIDTH 360 0
DWIDTH 6 0
BBX 3 11 1 -3
BITMAP
60
60
00
00
00
00
60
60
40
C0
80
ENDCHAR
STARTCHAR CENA3C
ENCODING 60
SWIDTH 660 0
DWIDTH 11 0
BBX 6 9 2 0
BITMAP
0C
18
30
60
C0
60
30
18
0C
ENDCHAR
STARTCHAR CENA3D
ENCODING 61
SWIDTH 720 0
DWIDTH 12 0
BBX 7 4 2 3
BITMAP
FE
00
00
FE
ENDCHAR
STARTCHAR CENA3E
ENCODING 62
SWIDTH 660 0
DWIDTH 11 0
BBX 6 9 2 0
BITMAP
C0
60
30
18
0C
18
30
60
C0
ENDCHAR
STARTCHAR CENA3F
ENCODING 63
SWIDTH 600 0
DWIDTH 10 0
BBX 7 11 2 0
BITMAP
7C
C6
C6
06
0C
18
30
30
00
30
30
ENDCHAR
STARTCHAR CENA40
ENCODING 64
SWIDTH 960 0
DWIDTH 16 0
BBX 14 14 1 -2
BITMAP
07C0
1830
2008
4008
47C4
8CC4
98C4
98C4
98C4
99C8
4E70
4000
3030
0FC0
ENDCHAR
STARTCHAR CENA41
ENCODING 65
SWIDTH 600 0
DWIDTH 10 0
BBX 9 11 0 0
BITMAP
0C00
0C00
1E00
1600
3600
3300
2300
6300
7F80
C180
C180
ENDCHAR
STARTCHAR CENA42
ENCODING 66
SWIDTH 600 0
DWIDTH 10 0
BBX 8 11 1 0
BITMAP
FC
C6
C6
C6
FC
C6
C3
C3
C3
C6
FC
ENDCHAR
STARTCHAR CENA43
ENCODING 67
SWIDTH 540 0
DWIDTH 9 0
BBX 8 11 1 0
BITMAP
3C
66
C2
C0
C0
C0
C0
C0
C3
66
3C
ENDCHAR
STARTCHAR CENA44
ENCODING 68
SWIDTH 600 0
DWIDTH 10 0
BBX 8 11 1 0
BITMAP
F8
CE
C6
C3
C3
C3
C3
C3
C6
CE
F8
ENDCHAR
STARTCHAR CENA45
ENCODING 69
SWIDTH 540 0
DWIDTH 9 0
BBX 7 11 1 0
BITMAP
FE
C0
C0
C0
FC
C0
C0
C0
C0
C0
FE
ENDCHAR
STARTCHAR CENA46
ENCODING 70
SWIDTH 480 0
DWIDTH 8 0
BBX 7 11 1 0
BITMAP
FE
C0
C0
C0
FC
C0
C0
C0
C0
C0
C0
ENDCHAR
STARTCHAR CENA47
ENCODING 71
SWIDTH 600 0
DWIDTH 10 0
BBX 8 11 1 0
BITMAP
3C
66
C3
C0
C0
CF
C3
C3
C3
63
3F
ENDCHAR
STARTCHAR CENA48
ENCODING 72
SWIDTH 600 0
DWIDTH 10 0
BBX 8 11 1 0
BITMAP
C3
C3
C3
C3
FF
C3
C3
C3
C3
C3
C3
ENDCHAR
STARTCHAR CENA49
ENCODING 73
SWIDTH 360 0
DWIDTH 6 0
BBX 2 11 2 0
BITMAP
C0
C0
C0
C0
C0
C0
C0
C0
C0
C0
C0
ENDCHAR
STARTCHAR CENA4A
ENCODING 74
SWIDTH 480 0
DWIDTH 8 0
BBX 7 11 0 0
BITMAP
06
06
06
06
06
06
06
C6
C6
6C
38
ENDCHAR
STARTCHAR CENA4B
ENCODING 75
SWIDTH 600 0
DWIDTH 10 0
BBX 8 11 1 0
BITMAP
C6
CC
D8
F0
E0
F0
D8
CC
C6
C3
C1
ENDCHAR
STARTCHAR CENA4C
ENCODING 76
SWIDTH 480 0
DWIDTH 8 0
BBX 7 11 1 0
BITMAP
C0
C0
C0
C0
C0
C0
C0
C0
C0
C0
FE
ENDCHAR
STARTCHAR CENA4D
ENCODING 77
SWIDTH 660 0
DWIDTH 11 0
BBX 9 11 1 0
BITMAP
C180
C180
E380
E380
F780
D580
DD80
C980
C980
C180
C180
ENDCHAR
STARTCHAR CENA4E
ENCODING 78
SWIDTH 600 0
DWIDTH 10 0
BBX 8 11 1 0
BITMAP
C3
E3
E3
F3
D3
DB
CB
CF
C7
C7
C3
ENDCHAR
STARTCHAR CENA4F
ENCODING 79
SWIDTH 600 0
DWIDTH 10 0
BBX 8 11 1 0
BITMAP
3C
66
C3
C3
C3
C3
C3
C3
C3
66
3C
ENDCHAR
STARTCHAR CENA50
ENCODING 80
SWIDTH 540 0
DWIDTH 9 0
BBX 7 11 1 0
BITMAP
F8
CC
C6
C6
C6
CC
F8
C0
C0
C0
C0
ENDCHAR
STARTCHAR CENA51
ENCODING 81
SWIDTH 600 0
DWIDTH 10 0
BBX 9 11 1 0
BITMAP
3C00
6600
C300
C300
C300
C300
FB00
CF00
C700
6700
3D80
ENDCHAR
STARTCHAR CENA52
ENCODING 82
SWIDTH 540 0
DWIDTH 9 0
BBX 8 11 1 0
BITMAP
FC
C6
C6
C6
C6
FC
F0
D8
CC
C6
C3
ENDCHAR
STARTCHAR CENA53
ENCODING 83
SWIDTH 540 0
DWIDTH 9 0
BBX 8 11 0 0
BITMAP
3C
66
60
70
3C
0E
07
03
C3
66
3C
ENDCHAR
STARTCHAR CENA54
ENCODING 84
SWIDTH 540 0
DWIDTH 9 0
BBX 8 11 0 0
BITMAP
FF
18
18
18
18
18
18
18
18
18
18
ENDCHAR
STARTCHAR CENA55
ENCODING 85
SWIDTH 600 0
DWIDTH 10 0
BBX 8 11 1 0
BITMAP
C3
C3
C3
C3
C3
C3
C3
C3
C3
66
3C
ENDCHAR
STARTCHAR CENA56
ENCODING 86
SWIDTH 600 0
DWIDTH 10 0
BBX 8 11 1 0
BITMAP
C3
C3
C2
62
66
64
34
3C
38
18
18
ENDCHAR
STARTCHAR CENA57
ENCODING 87
SWIDTH 780 0
DWIDTH 13 0
BBX 12 11 0 0
BITMAP
C010
C610
C630
6620
6720
6F60
3B40
39C0
39C0
1180
1080
ENDCHAR
STARTCHAR CENA58
ENCODING 88
SWIDTH 600 0
DWIDTH 10 0
BBX 9 11 0 0
BITMAP
6180
6100
3300
3600
1C00
0C00
1E00
3600
2300
6180
C180
ENDCHAR
STARTCHAR CENA59
ENCODING 89
SWIDTH 540 0
DWIDTH 9 0
BBX 8 11 0 0
BITMAP
C3
C2
66
64
3C
18
18
18
18
18
18
ENDCHAR
STARTCHAR CENA5A
ENCODING 90
SWIDTH 540 0
DWIDTH 9 0
BBX 7 11 1 0
BITMAP
FE
06
0C
0C
18
30
30
60
60
C0
FE
ENDCHAR
STARTCHAR CENA5B
ENCODING 91
SWIDTH 300 0
DWIDTH 5 0
BBX 3 15 2 -4
BITMAP
E0
C0
C0
C0
C0
C0
C0
C0
C0
C0
C0
C0
C0
C0
E0
ENDCHAR
STARTCHAR CENA5C
ENCODING 92
SWIDTH 420 0
DWIDTH 7 0
BBX 7 13 0 -2
BITMAP
80
C0
40
60
20
30
10
18
08
0C
04
06
02
ENDCHAR
STARTCHAR GCID5D
ENCODING 93
SWIDTH 300 0
DWIDTH 5 0
BBX 3 15 0 -4
BITMAP
E0
60
60
60
60
60
60
60
60
60
60
60
60
60
E0
ENDCHAR
STARTCHAR GCID5E
ENCODING 94
SWIDTH 960 0
DWIDTH 16 0
BBX 9 4 3 7
BITMAP
1C00
3600
6300
C180
ENDCHAR
STARTCHAR GCID5F
ENCODING 95
SWIDTH 480 0
DWIDTH 8 0
BBX 8 1 0 -4
BITMAP
FF
ENDCHAR
STARTCHAR GCID60
ENCODING 96
SWIDTH 480 0
DWIDTH 8 0
BBX 3 2 2 9
BITMAP
C0
20
ENDCHAR
STARTCHAR CENA61
ENCODING 97
SWIDTH 540 0
DWIDTH 9 0
BBX 7 8 1 0
BITMAP
76
CE
C6
C6
C6
C6
CE
76
ENDCHAR
STARTCHAR CENA62
ENCODING 98
SWIDTH 540 0
DWIDTH 9 0
BBX 7 11 1 0
BITMAP
C0
C0
C0
DC
E6
C6
C6
C6
C6
E6
DC
ENDCHAR
STARTCHAR CENA63
ENCODING 99
SWIDTH 480 0
DWIDTH 8 0
BBX 6 8 1 0
BITMAP
78
CC
C0
C0
C0
C0
CC
78
ENDCHAR
STARTCHAR CENA64
ENCODING 100
SWIDTH 540 0
DWIDTH 9 0
BBX 7 11 1 0
BITMAP
06
06
06
76
CE
C6
C6
C6
C6
CE
76
ENDCHAR
STARTCHAR CENA65
ENCODING 101
SWIDTH 540 0
DWIDTH 9 0
BBX 7 8 1 0
BITMAP
7C
C6
C6
FE
C0
C0
C6
7C
ENDCHAR
STARTCHAR CENA66
ENCODING 102
SWIDTH 420 0
DWIDTH 7 0
BBX 7 11 0 0
BITMAP
3C
66
60
60
FC
60
60
60
60
60
60
ENDCHAR
STARTCHAR CENA67
ENCODING 103
SWIDTH 540 0
DWIDTH 9 0
BBX 7 11 1 -3
BITMAP
76
CE
C6
C6
C6
C6
CE
76
06
C6
7C
ENDCHAR
STARTCHAR CENA68
ENCODING 104
SWIDTH 540 0
DWIDTH 9 0
BBX 7 11 1 0
BITMAP
C0
C0
C0
DC
E6
C6
C6
C6
C6
C6
C6
ENDCHAR
STARTCHAR CENA69
ENCODING 105
SWIDTH 360 0
DWIDTH 6 0
BBX 2 12 2 0
BITMAP
C0
C0
00
00
C0
C0
C0
C0
C0
C0
C0
C0
ENDCHAR
STARTCHAR CENA6A
ENCODING 106
SWIDTH 360 0
DWIDTH 6 0
BBX 4 14 0 -3
BITMAP
30
30
00
30
30
30
30
30
30
30
30
30
30
E0
ENDCHAR
STARTCHAR CENA6B
ENCODING 107
SWIDTH 540 0
DWIDTH 9 0
BBX 7 11 1 0
BITMAP
C0
C0
C0
C6
CC
D8
F0
F8
CC
C6
C2
ENDCHAR
STARTCHAR CENA6C
ENCODING 108
SWIDTH 360 0
DWIDTH 6 0
BBX 2 11 2 0
BITMAP
C0
C0
C0
C0
C0
C0
C0
C0
C0
C0
C0
ENDCHAR
STARTCHAR CENA6D
ENCODING 109
SWIDTH 840 0
DWIDTH 14 0
BBX 12 8 1 0
BITMAP
DCE0
E730
C630
C630
C630
C630
C630
C630
ENDCHAR
STARTCHAR CENA6E
ENCODING 110
SWIDTH 540 0
DWIDTH 9 0
BBX 7 8 1 0
BITMAP
DC
E6
C6
C6
C6
C6
C6
C6
ENDCHAR
STARTCHAR CENA6F
ENCODING 111
SWIDTH 540 0
DWIDTH 9 0
BBX 7 8 1 0
BITMAP
7C
C6
C6
C6
C6
C6
C6
7C
ENDCHAR
STARTCHAR CENA70
ENCODING 112
SWIDTH 540 0
DWIDTH 9 0
BBX 7 11 1 -3
BITMAP
DC
E6
C6
C6
C6
C6
E6
DC
C0
C0
C0
ENDCHAR
STARTCHAR CENA71
ENCODING 113
SWIDTH 540 0
DWIDTH 9 0
BBX 7 11 1 -3
BITMAP
76
CE
C6
C6
C6
C6
CE
76
06
06
06
ENDCHAR
STARTCHAR CENA72
ENCODING 114
SWIDTH 420 0
DWIDTH 7 0
BBX 6 8 1 0
BITMAP
DC
E4
C0
C0
C0
C0
C0
C0
ENDCHAR
STARTCHAR CENA73
ENCODING 115
SWIDTH 480 0
DWIDTH 8 0
BBX 7 8 0 0
BITMAP
3C
66
60
38
0C
06
C6
7C
ENDCHAR
STARTCHAR CENA74
ENCODING 116
SWIDTH 300 0
DWIDTH 5 0
BBX 5 11 0 0
BITMAP
20
60
60
F8
60
60
60
60
60
60
60
ENDCHAR
STARTCHAR CENA75
ENCODING 117
SWIDTH 540 0
DWIDTH 9 0
BBX 7 8 1 0
BITMAP
C6
C6
C6
C6
C6
C6
CE
76
ENDCHAR
STARTCHAR CENA76
ENCODING 118
SWIDTH 480 0
DWIDTH 8 0
BBX 7 8 1 0
BITMAP
C2
C6
C4
6C
68
78
30
30
ENDCHAR
STARTCHAR CENA77
ENCODING 119
SWIDTH 720 0
DWIDTH 12 0
BBX 10 8 1 0
BITMAP
C040
C440
C4C0
6E80
6E80
7F80
3300
3300
ENDCHAR
STARTCHAR CENA78
ENCODING 120
SWIDTH 540 0
DWIDTH 9 0
BBX 7 8 1 0
BITMAP
C2
C6
6C
38
38
6C
C6
86
ENDCHAR
STARTCHAR CENA79
ENCODING 121
SWIDTH 480 0
DWIDTH 8 0
BBX 8 11 0 -3
BITMAP
C3
C3
62
66
34
3C
18
18
10
30
60
ENDCHAR
STARTCHAR CENA7A
ENCODING 122
SWIDTH 540 0
DWIDTH 9 0
BBX 7 8 1 0
BITMAP
FE
06
0C
18
30
60
C0
FE
ENDCHAR
STARTCHAR GCID7B
ENCODING 123
SWIDTH 480 0
DWIDTH 8 0
BBX 6 15 1 -3
BITMAP
1C
30
30
30
30
30
30
C0
30
30
30
30
30
30
1C
ENDCHAR
STARTCHAR GCID7C
ENCODING 124
SWIDTH 480 0
DWIDTH 8 0
BBX 1 16 3 -4
BITMAP
80
80
80
80
80
80
80
80
80
80
80
80
80
80
80
80
ENDCHAR
STARTCHAR GCID7D
ENCODING 125
SWIDTH 480 0
DWIDTH 8 0
BBX 6 15 1 -3
BITMAP
E0
30
30
30
30
30
30
0C
30
30
30
30
30
30
E0
ENDCHAR
STARTCHAR GCID7E
ENCODING 126
SWIDTH 780 0
DWIDTH 13 0
BBX 9 2 1 4
BITMAP
7880
8700
ENDCHAR
STARTCHAR GCIDD1
ENCODING 147
SWIDTH 960 0
DWIDTH 16 0
BBX 16 1 0 3
BITMAP
FFFF
ENDCHAR
STARTCHAR GCIDD2
ENCODING 148
SWIDTH 420 0
DWIDTH 7 0
BBX 6 5 1 6
BITMAP
24
6C
48
D8
D8
ENDCHAR
STARTCHAR GCIDD3
ENCODING 149
SWIDTH 420 0
DWIDTH 7 0
BBX 6 5 1 6
BITMAP
6C
6C
48
D8
90
ENDCHAR
STARTCHAR GCIDD4
ENCODING 150
SWIDTH 300 0
DWIDTH 5 0
BBX 3 5 1 6
BITMAP
20
60
40
C0
C0
ENDCHAR
STARTCHAR GCIDD5
ENCODING 151
SWIDTH 300 0
DWIDTH 5 0
BBX 3 5 1 6
BITMAP
60
60
40
C0
80
ENDCHAR
STARTCHAR GCIDDC
ENCODING 156
SWIDTH 300 0
DWIDTH 5 0
BBX 3 6 1 0
BITMAP
20
40
C0
C0
40
20
ENDCHAR
STARTCHAR GCIDDD
ENCODING 157
SWIDTH 240 0
DWIDTH 4 0
BBX 3 6 1 0
BITMAP
80
40
60
60
40
80
ENDCHAR
STARTCHAR GCIDC7
ENCODING 171
SWIDTH 420 0
DWIDTH 7 0
BBX 6 6 1 0
BITMAP
24
48
D8
D8
48
24
ENDCHAR
STARTCHAR GCIDC8
ENCODING 187
SWIDTH 420 0
DWIDTH 7 0
BBX 6 6 1 0
BITMAP
90
48
6C
6C
48
90
ENDCHAR
STARTCHAR CENAC0
ENCODING 192
SWIDTH 600 0
DWIDTH 10 0
BBX 9 15 0 0
BITMAP
1800
0C00
0000
0000
1C00
1C00
1600
3600
3600
2300
6300
7F00
4180
C180
C180
ENDCHAR
STARTCHAR GCIDCB
ENCODING 194
SWIDTH 600 0
DWIDTH 10 0
BBX 9 15 0 0
BITMAP
1C00
3600
0000
0000
1C00
1C00
1600
3600
3600
2300
6300
7F00
4180
C180
C180
ENDCHAR
STARTCHAR GCID82
ENCODING 199
SWIDTH 660 0
DWIDTH 11 0
BBX 8 14 1 -3
BITMAP
3C
66
C3
C0
C0
C0
C0
C0
C3
63
3E
18
08
78
ENDCHAR
STARTCHAR GCIDE9
ENCODING 200
SWIDTH 540 0
DWIDTH 9 0
BBX 8 15 1 0
BITMAP
30
18
00
00
FE
C0
C0
C0
FC
C0
C0
C0
C0
C0
FF
ENDCHAR
STARTCHAR GCIDE9
ENCODING 201
SWIDTH 540 0
DWIDTH 9 0
BBX 8 15 1 0
BITMAP
18
30
00
00
FE
C0
C0
C0
FC
C0
C0
C0
C0
C0
FF
ENDCHAR
STARTCHAR GCIDE9
ENCODING 202
SWIDTH 540 0
DWIDTH 9 0
BBX 8 15 1 0
BITMAP
38
6C
00
00
FE
C0
C0
C0
FC
C0
C0
C0
C0
C0
FF
ENDCHAR
STARTCHAR GCIDE9
ENCODING 203
SWIDTH 540 0
DWIDTH 9 0
BBX 8 15 1 0
BITMAP
6C
6C
00
00
FE
C0
C0
C0
FC
C0
C0
C0
C0
C0
FF
ENDCHAR
STARTCHAR GCIDEB
ENCODING 206
SWIDTH 420 0
DWIDTH 7 0
BBX 5 15 1 0
BITMAP
70
D8
00
00
60
60
60
60
60
60
60
60
60
60
60
ENDCHAR
STARTCHAR GCIDEC
ENCODING 207
SWIDTH 420 0
DWIDTH 7 0
BBX 5 15 1 0
BITMAP
D8
D8
00
00
60
60
60
60
60
60
60
60
60
60
60
ENDCHAR
STARTCHAR GCIDF1
ENCODING 212
SWIDTH 660 0
DWIDTH 11 0
BBX 8 15 1 0
BITMAP
1C
36
00
00
3C
66
C3
C3
C3
C3
C3
C3
C3
66
3C
ENDCHAR
STARTCHAR GCIDF1
ENCODING 217
SWIDTH 660 0
DWIDTH 11 0
BBX 8 15 1 0
BITMAP
18
0C
00
00
C3
C3
C3
C3
C3
C3
C3
C3
C3
66
3C
ENDCHAR
STARTCHAR GCIDF1
ENCODING 219
SWIDTH 660 0
DWIDTH 11 0
BBX 8 15 1 0
BITMAP
1C
36
00
00
C3
C3
C3
C3
C3
C3
C3
C3
C3
66
3C
ENDCHAR
STARTCHAR CENADC
ENCODING 220
SWIDTH 660 0
DWIDTH 11 0
BBX 8 15 1 0
BITMAP
36
36
00
00
C3
C3
C3
C3
C3
C3
C3
C3
C3
66
3C
ENDCHAR
STARTCHAR CENAE0
ENCODING 224
SWIDTH 540 0
DWIDTH 9 0
BBX 7 12 1 0
BITMAP
30
18
00
00
76
CE
C6
C6
C6
C6
CE
76
ENDCHAR
STARTCHAR CENAE2
ENCODING 226
SWIDTH 540 0
DWIDTH 9 0
BBX 7 12 1 0
BITMAP
38
6C
00
00
76
CE
C6
C6
C6
C6
CE
76
ENDCHAR
STARTCHAR CENAE7
ENCODING 231
SWIDTH 540 0
DWIDTH 9 0
BBX 7 11 1 -3
BITMAP
7C
C6
C0
C0
C0
C0
C6
7C
18
08
78
ENDCHAR
STARTCHAR CENAE8
ENCODING 232
SWIDTH 540 0
DWIDTH 9 0
BBX 7 12 1 0
BITMAP
30
18
00
00
7C
C6
C6
FE
C0
C0
C6
7C
ENDCHAR
STARTCHAR CENAE9
ENCODING 233
SWIDTH 540 0
DWIDTH 9 0
BBX 7 12 1 0
BITMAP
18
30
00
00
7C
C6
C6
FE
C0
C0
C6
7C
ENDCHAR
STARTCHAR CENAEA
ENCODING 234
SWIDTH 540 0
DWIDTH 9 0
BBX 7 12 1 0
BITMAP
38
6C
00
00
7C
C6
C6
FE
C0
C0
C6
7C
ENDCHAR
STARTCHAR CENAEB
ENCODING 235
SWIDTH 540 0
DWIDTH 9 0
BBX 7 12 1 0
BITMAP
6C
6C
00
00
7C
C6
C6
FE
C0
C0
C6
7C
ENDCHAR
STARTCHAR CENAEF
ENCODING 238
SWIDTH 360 0
DWIDTH 6 0
BBX 5 12 2 0
BITMAP
70
D8
00
00
60
60
60
60
60
60
60
60
ENDCHAR
STARTCHAR CENAF0
ENCODING 239
SWIDTH 360 0
DWIDTH 6 0
BBX 5 12 2 0
BITMAP
D8
D8
00
00
60
60
60
60
60
60
60
60
ENDCHAR
STARTCHAR CENAF5
ENCODING 244
SWIDTH 540 0
DWIDTH 9 0
BBX 7 12 1 0
BITMAP
38
6C
00
00
7C
C6
C6
C6
C6
C6
C6
7C
ENDCHAR
STARTCHAR CENAFA
ENCODING 249
SWIDTH 540 0
DWIDTH 9 0
BBX 7 12 1 0
BITMAP
30
18
00
00
C6
C6
C6
C6
C6
C6
CE
76
ENDCHAR
STARTCHAR CENAFC
ENCODING 251
SWIDTH 540 0
DWIDTH 9 0
BBX 7 12 1 0
BITMAP
38
6C
00
00
C6
C6
C6
C6
C6
C6
CE
76
ENDCHAR
STARTCHAR GCIDD8
ENCODING 252
SWIDTH 540 0
DWIDTH 9 0
BBX 7 12 1 0
BITMAP
6C
6C
00
00
C6
C6
C6
C6
C6
C6
CE
76
ENDCHAR
ENDFONT
